<?xml version="1.0" encoding="UTF-8"?>
<!DOCTYPE svg PUBLIC "-//W3C//DTD SVG 1.1//EN" "http://www.w3.org/Graphics/SVG/1.1/DTD/svg11.dtd">
<!-- Creator: CorelDRAW X7 -->
<svg xmlns="http://www.w3.org/2000/svg" xml:space="preserve" width="8.26772in" height="8.26772in" version="1.1" style="shape-rendering:geometricPrecision; text-rendering:geometricPrecision; image-rendering:optimizeQuality; fill-rule:evenodd; clip-rule:evenodd"
viewBox="0 0 8268 8268"
 xmlns:xlink="http://www.w3.org/1999/xlink">
 <defs>
  <style type="text/css">
   <![CDATA[
    .fil0 {fill:none}
    .fil3 {fill:#50A7B0}
    .fil2 {fill:#AACD46}
    .fil4 {fill:#F5FFD4}
    .fil1 {fill:white}
   ]]>
  </style>
 </defs>
 <g id="Layer_x0020_1">
  <metadata id="CorelCorpID_0Corel-Layer"/>
  <rect class="fil0" width="8268" height="8268"/>
  <g id="_2547757889872">
   <path class="fil1" d="M3936 4822c34,-12 85,-144 107,-184 35,-63 73,-115 116,-171 403,-519 744,-431 976,-750 211,-290 65,-611 -240,-711 -259,-84 -462,-6 -675,117 -57,32 -132,84 -213,62 -172,16 -383,-371 -847,-265 -323,73 -489,371 -306,688 38,65 77,113 129,154 56,42 106,82 166,121 299,199 386,239 596,555 41,60 71,114 102,186 18,44 58,174 89,198z"/>
   <path class="fil2" d="M4019 2986c-2,35 -10,48 -10,95 -1,35 -3,68 -2,104 81,22 156,-30 213,-62 213,-123 416,-201 675,-117 305,100 451,421 240,711 -232,319 -573,231 -976,750 -43,56 -81,108 -116,171 -22,40 -73,172 -107,184 -2,26 -9,43 -12,68 -7,73 -4,88 -6,154 -1,13 -2,24 -3,36 -2,19 0,23 -8,36l12 26c24,-11 52,-70 69,-94 170,-233 316,-436 602,-571 379,-179 706,-195 1026,-318 175,-68 301,-141 397,-272 93,-127 148,-334 128,-535 -33,-324 -211,-556 -487,-685 -33,-15 -92,-36 -117,-54 53,-14 147,-73 191,-128 178,-223 134,-598 -131,-657 -348,-79 -559,476 -315,707 14,13 29,21 40,41 -125,14 -137,-26 -394,27 -325,66 -471,186 -741,337 -74,41 -69,45 -168,46z"/>
   <path class="fil3" d="M3907 5116c8,-13 6,-17 8,-36 1,-12 2,-23 3,-36 2,-66 -1,-81 6,-154 3,-25 10,-42 12,-68 -31,-24 -71,-154 -89,-198 -31,-72 -61,-126 -102,-186 -210,-316 -297,-356 -596,-555 -60,-39 -110,-79 -166,-121 -52,-41 -91,-89 -129,-154 -183,-317 -17,-615 306,-688 464,-106 675,281 847,265 -1,-36 1,-69 2,-104 0,-47 8,-60 10,-95 -19,-9 -25,-1 -49,-7 -11,-3 -30,-13 -38,-18 -25,-14 -44,-27 -67,-42 -211,-144 -293,-240 -543,-343 -132,-54 -188,-84 -339,-104 -27,-4 -190,-18 -197,-22 -8,-6 2,-11 29,-36 46,-42 82,-79 107,-142 102,-254 -63,-620 -341,-595 -254,23 -366,375 -201,641 56,91 93,93 181,149 -13,11 -99,30 -125,38 -125,44 -217,108 -311,193 -268,246 -337,709 -158,996 139,223 363,310 604,403 252,97 481,164 715,296 177,99 242,174 358,311 164,195 219,357 263,412z"/>
   <path class="fil3" d="M4046 7671l196 0c25,-10 202,-15 247,-20 224,-22 443,-64 657,-129 443,-133 851,-349 1200,-631 51,-41 93,-79 141,-119 117,-98 436,-436 496,-550 -25,14 -100,98 -130,126 -169,152 -217,195 -414,338 -184,133 -419,264 -644,362 -1287,562 -2829,436 -3970,-365 -79,-56 -214,-157 -282,-220 -44,-39 -87,-78 -131,-118 -32,-29 -99,-105 -127,-123 22,42 136,181 175,224 23,26 41,44 63,69 55,62 202,211 264,262 49,40 92,80 144,122 454,367 1045,632 1637,725 79,12 155,22 235,30 44,4 221,9 243,17z"/>
   <path class="fil3" d="M1285 2041c25,-16 142,-141 190,-181 145,-121 173,-153 351,-280 187,-134 414,-262 643,-363 1058,-467 2266,-460 3326,-2 285,124 545,283 787,468 97,74 128,108 205,172 24,19 43,40 66,61l130 125c-69,-130 -399,-468 -511,-562 -226,-191 -366,-295 -629,-445 -1025,-579 -2393,-588 -3418,0 -412,237 -718,485 -1023,852l-117 155z"/>
   <path class="fil2" d="M5253 6325l-4 144c-28,3 -57,1 -86,1 -107,0 -82,18 -83,-126 0,-20 0,-41 0,-61 1,-66 3,-53 -17,-49 -19,53 -183,44 -235,57 -85,22 -93,97 -120,179l-118 -1c-37,-233 74,-519 -114,-526l-1 367c-29,-6 -47,-27 -98,-31 -43,-3 -95,0 -138,1 -124,4 -69,92 -86,189l-159 0c-16,-127 56,-208 -159,-186 -47,4 -48,23 -77,39 -45,-48 -28,-41 -116,-40 -107,0 -75,20 -120,38l-2 -72c-28,6 -87,43 -110,57l-1 164c-78,3 -39,-17 -92,-40 -10,59 -14,112 -52,141 -50,37 -101,-13 -108,-61 -9,-58 7,-132 -3,-191 -8,-51 -51,-93 -108,-90 -5,115 -15,332 43,403 59,73 167,87 232,23 28,-26 25,-46 44,-71l155 -1 1 -187 121 -1 1 73 -48 2 -4 112 165 1 1 -187 122 -1 1 187 1908 1 2 -111 -105 -2c-35,-234 72,-507 -113,-528l-2 369c-48,-11 -32,-34 -164,-32 -31,1 -66,1 -94,4 -40,6 -45,16 -59,43z"/>
   <path class="fil3" d="M4110 5563c-96,-44 -104,-36 -236,-31 -115,3 -78,91 -83,188l-186 -1 -2 -185c-110,8 -109,81 -111,184l-144 1 -3 -182c-87,-9 -113,67 -113,143 -1,197 124,156 354,155 248,0 525,5 767,-3 156,-4 353,-9 507,1 20,27 31,70 87,96 103,49 212,-20 220,-111 1,-12 2,-76 0,-87 -4,-20 -23,-39 -43,-50l-4 7c-12,29 -7,99 -51,131 -50,37 -101,-7 -109,-57 -21,-126 44,-274 -112,-286l-2 242 -134 1 -2 -242c-32,22 -44,40 -98,50 -123,24 -207,-48 -273,192l-116 0c-3,-104 0,-211 0,-315 0,-110 0,-204 -112,-211l-1 370z"/>
   <path class="fil3" d="M2155 5720l-89 0c-11,28 -57,89 -59,112l251 3 66 -100c52,47 74,143 173,145 71,2 48,-14 66,-44l221 -1 1 -189 206 -1 1 187 235 3 0 -116 -122 0c-7,-150 57,-202 -216,-188 -59,3 -67,21 -103,32l-1 -370c-116,6 -112,97 -111,205 0,108 2,214 -1,322l-89 -1c-27,54 -16,31 -46,47 -24,12 -43,28 -69,-3 -13,-16 -72,-99 -80,-121 43,-80 84,-26 105,-19 3,-32 10,-88 -6,-110 -19,-26 -70,-17 -97,-5 -71,31 -86,90 -121,124 -15,-134 21,-310 -23,-388 -14,-27 -49,-54 -91,-49l-1 525z"/>
   <path class="fil4" d="M4268 6469c34,5 70,2 104,2l87 -1c23,-5 18,-31 16,-75l-207 -2 0 76z"/>
   <path class="fil1" d="M5364 6468c13,2 189,9 201,-4 10,-14 6,-47 5,-68l-206 -2 0 74z"/>
   <polygon class="fil1" points="3905,5719 4110,5719 4111,5647 3905,5645 "/>
   <path class="fil1" d="M4465 6405l-187 -1c-7,77 26,57 94,57 98,-1 97,14 93,-56z"/>
   <path class="fil3" d="M2974 5282c-70,33 -23,127 43,101 61,-25 30,-136 -43,-101z"/>
   <path class="fil2" d="M5417 6027c-70,21 -45,126 32,106 60,-17 43,-128 -32,-106z"/>
   <path class="fil3" d="M4883 5279c-62,20 -38,125 34,106 67,-17 43,-132 -34,-106z"/>
   <path class="fil2" d="M4321 6027c-71,25 -40,126 33,106 62,-18 40,-131 -33,-106z"/>
   <path class="fil2" d="M3663 6680c-77,28 -38,119 27,106 67,-14 46,-133 -27,-106z"/>
   <path class="fil3" d="M3956 5280c-71,26 -36,127 36,103 63,-21 34,-129 -36,-103z"/>
   <path class="fil2" d="M3503 6680c-75,28 -38,123 32,105 63,-17 39,-131 -32,-105z"/>
   <path class="fil2" d="M3084 6028c-72,30 -37,126 36,104 59,-17 34,-132 -36,-104z"/>
   <path class="fil1" d="M4829 6468l29 2 17 -1 50 0 42 0 2 -74c-74,-4 -142,-4 -140,73z"/>
   <path class="fil1" d="M4458 5718l140 1 1 -73c-83,-2 -134,-11 -141,72z"/>
   <path class="fil4" d="M5063 6234c20,-4 18,-17 17,49 0,20 0,41 0,61 1,144 -24,126 83,126 29,0 58,2 86,-1l4 -144c-2,2 -9,-2 -12,25 -2,23 7,67 -2,108 -35,5 -115,10 -143,-2l-3 -8c-6,-29 2,-196 -6,-217 -5,-15 0,-3 -7,-12 -24,4 -8,-3 -17,15z"/>
  </g>
 </g>
</svg>
